<svg width="156" height="19" viewBox="0 0 156 19" fill="none" xmlns="http://www.w3.org/2000/svg">
<path d="M86.0796 18.741V0.621094H89.5615L96.017 11.3377L93.755 11.3118L100.312 0.621094H103.667V18.741H99.931V12.6061C99.931 11.0357 99.9649 9.62064 100.033 8.36088C100.117 7.10111 100.253 5.8586 100.439 4.63336L100.871 5.84998L95.6612 14.0557H93.9584L88.8753 5.90175L89.2819 4.63336C89.4852 5.78958 89.6208 6.98031 89.6886 8.20556C89.7733 9.43081 89.8157 10.8977 89.8157 12.6061V18.741H86.0796Z" fill="white" style="fill:white;fill-opacity:1;"/>
<path d="M70.9634 18.741V0.621094H82.9594V4.03799H74.6994V15.3241H83.1374V18.741H70.9634ZM72.7425 11.1565V7.84316H81.7395V11.1565H72.7425Z" fill="white" style="fill:white;fill-opacity:1;"/>
<path d="M61.7166 18.9999C60.0561 18.9999 58.6329 18.6979 57.4468 18.0939C56.2777 17.4727 55.2695 16.5753 54.4224 15.4018L56.8114 12.658C57.6416 13.8314 58.4634 14.6339 59.2767 15.0653C60.1069 15.4795 60.9965 15.6866 61.9453 15.6866C62.4706 15.6866 62.9365 15.6089 63.3432 15.4536C63.7668 15.2983 64.0972 15.0826 64.3344 14.8065C64.5885 14.5304 64.7156 14.2111 64.7156 13.8487C64.7156 13.5726 64.6563 13.3224 64.5377 13.098C64.4191 12.8564 64.2497 12.6493 64.0294 12.4768C63.8091 12.2869 63.5465 12.123 63.2415 11.9849C62.9365 11.8296 62.5977 11.7002 62.2249 11.5967C61.8521 11.4931 61.4455 11.3982 61.005 11.3119C60.0561 11.1048 59.2259 10.8374 58.5142 10.5095C57.8026 10.1816 57.2096 9.78467 56.7352 9.31873C56.2607 8.85279 55.9049 8.31783 55.6677 7.71383C55.4475 7.09258 55.3373 6.40229 55.3373 5.64298C55.3373 4.57305 55.6338 3.64117 56.2269 2.84734C56.8199 2.03626 57.6078 1.40638 58.5905 0.957699C59.5732 0.491759 60.6576 0.258789 61.8437 0.258789C63.4533 0.258789 64.7749 0.534902 65.8085 1.08713C66.859 1.63935 67.6977 2.41592 68.3246 3.41683L65.8847 5.85007C65.3595 5.10802 64.758 4.54716 64.0802 4.16751C63.4025 3.78785 62.6739 3.59803 61.8945 3.59803C61.3523 3.59803 60.8694 3.67568 60.4458 3.831C60.0392 3.96905 59.7257 4.18477 59.5054 4.47814C59.2852 4.75425 59.175 5.08213 59.175 5.46179C59.175 5.77241 59.2513 6.04852 59.4038 6.29012C59.5563 6.53172 59.7681 6.74744 60.0392 6.93726C60.3272 7.10983 60.6746 7.26515 61.0812 7.4032C61.4878 7.54126 61.9369 7.65343 62.4282 7.73972C63.3601 7.92954 64.1988 8.1884 64.9443 8.51628C65.6899 8.82691 66.3252 9.20656 66.8505 9.65525C67.3927 10.1039 67.8078 10.6216 68.0959 11.2084C68.3839 11.7951 68.5279 12.4509 68.5279 13.1757C68.5279 14.4009 68.2399 15.445 67.6638 16.3078C67.0877 17.1707 66.2914 17.8351 65.2747 18.301C64.2581 18.767 63.0721 18.9999 61.7166 18.9999Z" fill="white" style="fill:white;fill-opacity:1;"/>
<path d="M45.3208 18.8963C43.8806 18.8963 42.5928 18.5943 41.4576 17.9903C40.3393 17.3691 39.4583 16.5235 38.8144 15.4535C38.1706 14.3663 37.8486 13.1411 37.8486 11.7778V0.595215H41.6609V11.5448C41.6609 12.2696 41.8219 12.9254 42.1438 13.5121C42.4827 14.0816 42.9317 14.5389 43.4909 14.884C44.05 15.2292 44.66 15.4018 45.3208 15.4018C46.0154 15.4018 46.6424 15.2292 47.2015 14.884C47.7776 14.5389 48.2266 14.0816 48.5485 13.5121C48.8874 12.9254 49.0568 12.2696 49.0568 11.5448V0.595215H52.7421V11.7778C52.7421 13.1411 52.4201 14.3663 51.7763 15.4535C51.1494 16.5235 50.2768 17.3691 49.1585 17.9903C48.0402 18.5943 46.761 18.8963 45.3208 18.8963Z" fill="white" style="fill:white;fill-opacity:1;"/>
<path d="M26.5445 18.9999C25.2398 18.9999 24.0283 18.767 22.9101 18.301C21.8087 17.8351 20.8514 17.1879 20.0381 16.3596C19.2418 15.514 18.6149 14.5217 18.1574 13.3828C17.7168 12.2438 17.4966 10.9927 17.4966 9.62936C17.4966 8.28331 17.7168 7.04081 18.1574 5.90184C18.6149 4.76288 19.2418 3.7706 20.0381 2.925C20.8514 2.07941 21.8087 1.42364 22.9101 0.957699C24.0283 0.491759 25.2398 0.258789 26.5445 0.258789C27.8491 0.258789 29.0436 0.491759 30.128 0.957699C31.2294 1.42364 32.1867 2.07941 33 2.925C33.8133 3.7706 34.4402 4.7715 34.8807 5.92773C35.3382 7.06669 35.5669 8.30057 35.5669 9.62936C35.5669 10.9754 35.3382 12.2179 34.8807 13.3569C34.4402 14.4958 33.8133 15.4881 33 16.3337C32.1867 17.1793 31.2294 17.8351 30.128 18.301C29.0436 18.767 27.8491 18.9999 26.5445 18.9999ZM26.5445 15.3242C27.29 15.3242 27.9762 15.1861 28.6031 14.91C29.23 14.6166 29.7722 14.2197 30.2297 13.7193C30.7041 13.2016 31.0684 12.5976 31.3226 11.9073C31.5767 11.217 31.7038 10.4577 31.7038 9.62936C31.7038 8.81828 31.5767 8.0676 31.3226 7.37732C31.0684 6.68704 30.7041 6.08304 30.2297 5.56533C29.7722 5.04762 29.23 4.65071 28.6031 4.37459C27.9762 4.08122 27.29 3.93454 26.5445 3.93454C25.7989 3.93454 25.1043 4.08122 24.4604 4.37459C23.8335 4.65071 23.2828 5.04762 22.8084 5.56533C22.3509 6.06578 21.9951 6.66978 21.741 7.37732C21.4868 8.0676 21.3597 8.82691 21.3597 9.65525C21.3597 10.7424 21.58 11.7175 22.0205 12.5803C22.478 13.4259 23.088 14.0989 23.8504 14.5994C24.6298 15.0826 25.5279 15.3242 26.5445 15.3242Z" fill="white" style="fill:white;fill-opacity:1;"/>
<path d="M11.2336 18.741V0.621094H15.0459V18.741H11.2336ZM0 18.741V0.621094H3.81231V18.741H0ZM1.55034 11.493V7.92082H13.1652V11.493H1.55034Z" fill="white" style="fill:white;fill-opacity:1;"/>
<path d="M140.039 18.741V0.621094H147.359C148.646 0.621094 149.824 0.845435 150.891 1.29412C151.959 1.72554 152.874 2.3468 153.636 3.15788C154.399 3.9517 154.983 4.90947 155.39 6.03118C155.797 7.13563 156 8.35225 156 9.68104C156 11.0271 155.797 12.2523 155.39 13.3568C154.983 14.4612 154.399 15.419 153.636 16.2301C152.874 17.0239 151.959 17.6452 150.891 18.0938C149.841 18.5253 148.663 18.741 147.359 18.741H140.039ZM143.851 15.8936L143.445 15.2464H147.232C147.994 15.2464 148.672 15.117 149.265 14.8582C149.875 14.5993 150.392 14.2283 150.815 13.7451C151.256 13.2446 151.586 12.6579 151.806 11.9849C152.027 11.2946 152.137 10.5266 152.137 9.68104C152.137 8.83544 152.027 8.07613 151.806 7.40311C151.586 6.71283 151.256 6.12609 150.815 5.64289C150.392 5.14244 149.875 4.76278 149.265 4.50393C148.672 4.24507 147.994 4.11564 147.232 4.11564H143.368L143.851 3.52028V15.8936Z" fill="white" style="fill:white;fill-opacity:1;"/>
<path fill-rule="evenodd" clip-rule="evenodd" d="M114.75 6.67572e-05C113.445 6.67572e-05 112.234 0.233038 111.116 0.698978C110.014 1.16492 109.057 1.81206 108.244 2.64039C107.447 3.48599 106.82 4.47827 106.363 5.61723C105.922 6.7562 105.702 8.00733 105.702 9.37064C105.702 10.7167 105.922 11.9592 106.363 13.0982C106.82 14.2371 107.447 15.2294 108.244 16.075C109.057 16.9206 110.014 17.5764 111.116 18.0423C112.234 18.5082 113.445 18.7412 114.75 18.7412C116.055 18.7412 117.249 18.5082 118.334 18.0423C119.435 17.5764 120.392 16.9206 121.206 16.075C122.019 15.2294 122.646 14.2285 123.086 13.0723C123.542 11.9389 123.77 10.7115 123.772 9.39005H123.798L123.798 9.34475C123.798 8.25756 124.018 7.28254 124.459 6.41969C124.916 5.57409 125.526 4.90107 126.289 4.40061C127.068 3.91741 127.966 3.67582 128.983 3.67582C129.728 3.67582 130.415 3.81387 131.042 4.08999C131.668 4.38336 132.211 4.78027 132.668 5.28072C133.143 5.79843 133.507 6.40243 133.761 7.09271C134.015 7.78299 134.142 8.5423 134.142 9.37064C134.142 10.1817 134.015 10.9324 133.761 11.6227C133.507 12.313 133.143 12.917 132.668 13.4347C132.211 13.9524 131.668 14.3493 131.042 14.6254C130.415 14.9188 129.728 15.0655 128.983 15.0655C128.245 15.0655 127.556 14.9217 126.918 14.6341C126.445 15.8663 125.805 16.9499 124.997 17.8849C125.113 17.9396 125.23 17.9921 125.349 18.0423C126.467 18.5082 127.678 18.7412 128.983 18.7412C130.288 18.7412 131.482 18.5082 132.566 18.0423C133.668 17.5764 134.625 16.9206 135.438 16.075C136.252 15.2294 136.879 14.2285 137.319 13.0723C137.777 11.9333 138.005 10.6994 138.005 9.37064C138.005 8.02459 137.777 6.78208 137.319 5.64312C136.879 4.50415 136.252 3.51188 135.438 2.66628C134.625 1.82069 133.668 1.16492 132.566 0.698978C131.482 0.233038 130.288 6.67572e-05 128.983 6.67572e-05C127.678 6.67572e-05 126.467 0.233038 125.349 0.698978C124.247 1.16492 123.29 1.81206 122.477 2.64039C121.68 3.48599 121.053 4.47827 120.596 5.61723C120.155 6.7562 119.935 8.00733 119.935 9.37064C119.935 9.4748 119.936 9.57834 119.939 9.68127H119.903C119.874 10.3742 119.75 11.0214 119.528 11.6227C119.274 12.313 118.91 12.917 118.435 13.4347C117.978 13.9524 117.436 14.3493 116.809 14.6254C116.182 14.9188 115.496 15.0655 114.75 15.0655C114.005 15.0655 113.31 14.9188 112.666 14.6254C112.039 14.3493 111.488 13.9524 111.014 13.4347C110.556 12.9342 110.201 12.3302 109.947 11.6227C109.692 10.9324 109.565 10.1731 109.565 9.34475C109.565 8.25756 109.786 7.28254 110.226 6.41969C110.684 5.57409 111.294 4.90107 112.056 4.40061C112.835 3.91741 113.733 3.67582 114.75 3.67582C115.496 3.67582 116.182 3.81387 116.809 4.08999L116.809 4.09002C117.302 2.89223 117.936 1.81852 118.711 0.868885C118.587 0.809692 118.461 0.753057 118.334 0.698978C117.249 0.233038 116.055 6.67572e-05 114.75 6.67572e-05Z" fill="white" style="fill:white;fill-opacity:1;"/>
</svg>
